<svg width="350" height="106" viewBox="0 0 350 106" fill="none" xmlns="http://www.w3.org/2000/svg">
<rect x="12" y="11" width="326" height="84" rx="1" fill="white"/>
<mask id="path-2-inside-1" fill="white">
<rect width="350" height="106" rx="1"/>
</mask>
<rect width="350" height="106" rx="1" stroke="url(#paint0_linear)" stroke-width="4" mask="url(#path-2-inside-1)"/>
<path d="M52.7058 60V47.058H63.1458C63.8418 47.058 64.4358 47.31 64.9278 47.814C65.4198 48.306 65.6658 48.888 65.6658 49.56V53.052C65.6658 53.736 65.4198 54.324 64.9278 54.816C64.4358 55.308 63.8418 55.554 63.1458 55.554H62.4438L65.6478 59.334V60H63.0558L59.3298 55.554L55.0818 55.572V60H52.7058ZM55.7118 53.16H62.6418C62.9658 53.16 63.1458 53.142 63.1818 53.106C63.2298 53.07 63.2538 52.884 63.2538 52.548V50.064C63.2538 49.728 63.2298 49.542 63.1818 49.506C63.1458 49.458 62.9658 49.434 62.6418 49.434H55.7118C55.3758 49.434 55.1838 49.458 55.1358 49.506C55.0998 49.542 55.0818 49.728 55.0818 50.064V52.548C55.0818 52.884 55.0998 53.07 55.1358 53.106C55.1838 53.142 55.3758 53.16 55.7118 53.16ZM70.3133 60V47.04H82.2473V49.434H72.7073V52.314H80.3753V54.708H72.7073V57.606H82.2473V60H70.3133ZM89.2066 60C88.5226 60 87.9346 59.754 87.4426 59.262C86.9506 58.77 86.7046 58.182 86.7046 57.498V56.508H89.0806V56.976C89.0806 57.312 89.0986 57.504 89.1346 57.552C89.1826 57.588 89.3746 57.606 89.7106 57.606H96.6406C96.9766 57.606 97.1626 57.588 97.1986 57.552C97.2466 57.504 97.2706 57.312 97.2706 56.976V55.338C97.2706 55.002 97.2466 54.816 97.1986 54.78C97.1626 54.732 96.9766 54.708 96.6406 54.708H89.2066C88.5226 54.708 87.9346 54.462 87.4426 53.97C86.9506 53.478 86.7046 52.89 86.7046 52.206V49.542C86.7046 48.858 86.9506 48.27 87.4426 47.778C87.9346 47.286 88.5226 47.04 89.2066 47.04H97.1626C97.8466 47.04 98.4346 47.286 98.9266 47.778C99.4186 48.27 99.6646 48.858 99.6646 49.542V50.532H97.2706V50.064C97.2706 49.728 97.2466 49.542 97.1986 49.506C97.1626 49.458 96.9766 49.434 96.6406 49.434H89.7106C89.3746 49.434 89.1826 49.458 89.1346 49.506C89.0986 49.542 89.0806 49.728 89.0806 50.064V51.702C89.0806 52.038 89.0986 52.224 89.1346 52.26C89.1826 52.296 89.3746 52.314 89.7106 52.314H97.1626C97.8466 52.314 98.4346 52.566 98.9266 53.07C99.4186 53.562 99.6646 54.15 99.6646 54.834V57.498C99.6646 58.182 99.4186 58.77 98.9266 59.262C98.4346 59.754 97.8466 60 97.1626 60H89.2066ZM108.974 60V49.434H103.682V47.04H116.642V49.434H111.368V60H108.974ZM120.724 60V49.542C120.724 48.858 120.97 48.27 121.462 47.778C121.954 47.286 122.542 47.04 123.226 47.04H131.164C131.86 47.04 132.454 47.286 132.946 47.778C133.438 48.27 133.684 48.858 133.684 49.542V60H131.29V55.644H123.1V60H120.724ZM123.1 53.268H131.29V50.064C131.29 49.728 131.266 49.542 131.218 49.506C131.17 49.458 130.984 49.434 130.66 49.434H123.73C123.394 49.434 123.202 49.458 123.154 49.506C123.118 49.542 123.1 49.728 123.1 50.064V53.268ZM138.417 60V47.058H148.857C149.553 47.058 150.147 47.31 150.639 47.814C151.131 48.306 151.377 48.888 151.377 49.56V53.052C151.377 53.736 151.131 54.324 150.639 54.816C150.147 55.308 149.553 55.554 148.857 55.554H148.155L151.359 59.334V60H148.767L145.041 55.554L140.793 55.572V60H138.417ZM141.423 53.16H148.353C148.677 53.16 148.857 53.142 148.893 53.106C148.941 53.07 148.965 52.884 148.965 52.548V50.064C148.965 49.728 148.941 49.542 148.893 49.506C148.857 49.458 148.677 49.434 148.353 49.434H141.423C141.087 49.434 140.895 49.458 140.847 49.506C140.811 49.542 140.793 49.728 140.793 50.064V52.548C140.793 52.884 140.811 53.07 140.847 53.106C140.895 53.142 141.087 53.16 141.423 53.16ZM160.632 60V49.434H155.34V47.04H168.3V49.434H163.026V60H160.632ZM180.548 60V47.04H183.158L187.856 52.638L192.536 47.04H195.164V60H192.77V50.496L187.856 56.346L182.924 50.514V60H180.548ZM199.876 60V47.04H202.234V60H199.876ZM206.497 60V47.04H209.107L217.063 56.508V47.04H219.457V60H216.847L208.873 50.514V60H206.497ZM224.102 60V47.04H226.46V60H224.102ZM233.225 60C232.541 60 231.953 59.754 231.461 59.262C230.969 58.77 230.723 58.182 230.723 57.498V49.542C230.723 48.858 230.969 48.27 231.461 47.778C231.953 47.286 232.541 47.04 233.225 47.04H241.163C241.859 47.04 242.453 47.286 242.945 47.778C243.437 48.27 243.683 48.858 243.683 49.542V50.55H241.289V50.064C241.289 49.728 241.265 49.542 241.217 49.506C241.169 49.458 240.983 49.434 240.659 49.434H233.729C233.393 49.434 233.201 49.458 233.153 49.506C233.117 49.542 233.099 49.728 233.099 50.064V56.976C233.099 57.312 233.117 57.504 233.153 57.552C233.201 57.588 233.393 57.606 233.729 57.606H240.659C240.983 57.606 241.169 57.588 241.217 57.552C241.265 57.504 241.289 57.312 241.289 56.976V55.05H238.355V52.656H243.683V57.498C243.683 58.182 243.437 58.77 242.945 59.262C242.453 59.754 241.859 60 241.163 60H233.225ZM248.401 60V49.542C248.401 48.858 248.647 48.27 249.139 47.778C249.631 47.286 250.219 47.04 250.903 47.04H258.841C259.537 47.04 260.131 47.286 260.623 47.778C261.115 48.27 261.361 48.858 261.361 49.542V60H258.967V55.644H250.777V60H248.401ZM250.777 53.268H258.967V50.064C258.967 49.728 258.943 49.542 258.895 49.506C258.847 49.458 258.661 49.434 258.337 49.434H251.407C251.071 49.434 250.879 49.458 250.831 49.506C250.795 49.542 250.777 49.728 250.777 50.064V53.268ZM266.112 60V47.04H268.722L273.42 52.638L278.1 47.04H280.728V60H278.334V50.496L273.42 56.346L268.488 50.514V60H266.112ZM285.547 60V47.04H297.481V49.434H287.941V52.314H295.609V54.708H287.941V57.606H297.481V60H285.547Z" fill="#000919"/>
<defs>
<linearGradient id="paint0_linear" x1="175" y1="0" x2="175" y2="106" gradientUnits="userSpaceOnUse">
<stop stop-color="white"/>
<stop offset="0.501928" stop-color="#667794"/>
<stop offset="1" stop-color="white"/>
</linearGradient>
</defs>
</svg>
